<?xml version="1.0" standalone="no"?>
<!DOCTYPE svg PUBLIC "-//W3C//DTD SVG 20010904//EN"
 "http://www.w3.org/TR/2001/REC-SVG-20010904/DTD/svg10.dtd">
<svg version="1.0" xmlns="http://www.w3.org/2000/svg"
 width="800.000000pt" height="600.000000pt" viewBox="0 0 800.000000 600.000000"
 preserveAspectRatio="xMidYMid meet">

<g transform="translate(0.000000,600.000000) scale(0.100000,-0.100000)"
fill="#000000" stroke="none">
<path d="M3140 4930 l0 -90 73 0 c110 0 254 -18 288 -35 16 -9 34 -27 39 -41
6 -15 10 -273 10 -640 l0 -614 -43 0 c-23 0 -80 -5 -126 -10 -46 -6 -85 -9
-87 -8 -2 2 -8 96 -14 208 -6 113 -13 224 -16 248 l-5 42 -1150 0 -1149 0 0
-88 0 -89 144 -7 c183 -8 242 -24 262 -71 12 -29 14 -206 14 -1138 0 -782 -3
-1113 -11 -1136 -6 -18 -24 -38 -40 -47 -38 -19 -150 -33 -271 -34 l-98 0 0
-90 0 -90 665 0 665 0 0 89 0 88 -177 6 c-196 6 -244 16 -277 60 -21 28 -21
38 -24 568 l-3 539 128 0 c131 0 225 -16 286 -46 18 -9 33 -17 35 -19 1 -1 -7
-44 -18 -96 -61 -288 -45 -646 41 -909 178 -543 712 -905 1294 -877 258 13
435 86 650 268 l91 76 70 -171 70 -171 82 -3 82 -3 0 345 0 345 773 4 c823 4
822 4 1012 56 365 100 576 334 592 656 10 188 -39 342 -144 456 -118 127 -289
212 -534 265 l-82 18 89 23 c225 60 370 172 463 359 42 85 61 169 61 271 0
109 -18 183 -72 293 -32 67 -58 102 -122 166 -95 95 -180 141 -326 178 -164
41 -270 46 -1057 46 l-743 0 0 -90 0 -90 68 0 c110 -1 260 -18 292 -35 16 -8
34 -24 40 -34 6 -13 10 -243 10 -671 l0 -651 -45 -20 c-51 -23 -168 -53 -237
-62 -44 -6 -48 -5 -52 16 -3 12 -14 231 -26 487 -11 256 -23 484 -26 508 l-5
42 -72 0 -72 0 -62 -98 c-97 -152 -80 -142 -149 -90 -32 25 -92 64 -131 88
l-73 43 0 658 c0 395 4 668 10 683 5 14 23 32 39 41 34 17 178 35 289 35 l72
0 0 90 0 90 -630 0 -630 0 0 -90z m2890 -1055 c111 -26 174 -58 233 -117 96
-96 139 -224 138 -417 -1 -230 -70 -365 -225 -441 -120 -58 -264 -80 -544 -80
l-173 0 5 43 c3 23 10 110 16 192 6 83 13 169 16 193 l5 42 -60 0 -61 0 0 246
c0 272 4 294 61 328 49 29 112 35 319 32 140 -3 216 -9 270 -21z m-3561 -76
c289 -27 435 -110 533 -306 24 -47 39 -87 33 -89 -5 -2 -48 -27 -94 -54 -97
-58 -170 -112 -253 -189 l-58 -53 0 76 0 76 -89 0 c-97 0 -101 -3 -101 -61 0
-17 -7 -62 -16 -102 -56 -248 -201 -353 -498 -359 l-111 -3 0 490 c0 451 1
493 17 518 22 33 48 47 107 57 70 12 401 11 530 -1z m1079 -895 l-3 -426 -23
-19 c-37 -30 -87 -39 -239 -46 l-143 -6 0 -89 0 -88 900 0 900 0 0 -150 0
-150 -570 0 -570 0 0 -89 0 -88 148 -5 c241 -9 263 -26 270 -215 5 -126 -16
-279 -48 -367 -64 -170 -218 -299 -425 -357 -102 -29 -275 -31 -380 -6 -93 23
-236 94 -310 154 -245 199 -364 603 -340 1158 17 424 93 715 240 920 48 67
141 162 150 153 4 -3 14 -46 24 -94 l18 -89 84 0 84 0 -3 75 c-1 41 -5 105 -8
142 -6 66 -5 68 20 78 30 11 133 27 189 29 l38 1 -3 -426z m558 174 c73 -80
154 -203 206 -316 44 -94 118 -305 118 -336 0 -18 -7 -19 -147 -13 -168 6
-241 23 -272 64 -20 25 -21 38 -21 365 l0 339 29 -20 c15 -11 55 -49 87 -83z
m1839 -449 c335 -34 505 -149 560 -380 22 -96 20 -296 -5 -393 -75 -293 -269
-386 -802 -386 -189 0 -245 10 -284 51 l-29 30 -3 340 c-3 335 -3 339 18 339
15 0 20 7 20 24 0 30 18 259 26 334 l5 52 193 0 c106 0 242 -5 301 -11z
m-1005 -978 c0 -148 -19 -163 -223 -177 l-97 -7 0 91 c0 50 5 103 12 117 22
48 96 71 241 74 l67 1 0 -99z"/>
</g>
</svg>
